# This file uses centimeters as units for non-parametric coordinates.

mtllib Mesa_v01.mtl
g default
v 20.258257 6.553149 6.166102
v -17.539238 6.553149 6.166102
v 20.258257 8.225015 6.166102
v -17.539238 8.225015 6.166102
v 20.258257 8.225015 23.113817
v -17.539238 8.225015 23.113817
v 20.258257 6.553149 23.113817
v -17.539238 6.553149 23.113817
v -6.264396 6.553149 6.166102
v -6.264396 8.225015 6.166102
v -6.264396 8.225015 23.113817
v -6.264396 6.553149 23.113817
v -6.264396 -0.211764 23.113817
v -6.264395 -0.737461 6.166102
v -17.539238 -0.211764 23.113817
v -17.539240 -0.737461 6.166102
v -6.264396 4.131493 6.166102
v -17.539238 4.131493 6.166102
v -17.539238 4.131493 23.113817
v -6.264396 4.131493 23.113817
v -6.264395 1.518599 6.166102
v -17.539240 1.518599 6.166102
v -17.539238 2.044297 23.113817
v -6.264396 2.044297 23.113817
v -6.485573 6.553149 6.166102
v -6.485573 8.225015 6.166102
v -6.485573 8.225015 23.113817
v -6.485573 6.553149 23.113817
v -6.485573 4.131493 23.113817
v -6.485573 2.044297 23.113817
v -6.485573 -0.211764 23.113817
v -6.474998 -0.737461 6.168868
v -6.485573 1.518599 6.171634
v -6.485573 4.131493 6.166102
v -17.288462 6.553149 6.166102
v -17.288462 8.225015 6.166102
v -17.288462 8.225015 23.113817
v -17.288462 6.553149 23.113817
v -17.288462 4.131493 23.113817
v -17.288462 2.044297 23.113817
v -17.288462 -0.211764 23.113817
v -17.288461 -0.737461 6.166102
v -17.288461 1.518599 6.304042
v -17.288462 4.131493 6.166102
v -6.730572 6.553149 6.336056
v -6.730572 8.225015 6.166102
v -6.730572 8.225015 23.113817
v -6.730572 6.553149 23.113817
v -6.730581 4.131493 23.113817
v -6.730581 2.044297 23.113817
v -6.730572 -0.211764 23.113817
v -6.730573 -0.737461 6.166102
v -6.730572 2.044297 6.336056
v -6.730572 4.131493 6.336056
v -17.042639 6.553149 6.336056
v -17.042639 8.225015 6.166102
v -17.042639 8.225015 23.113817
v -17.042639 6.553149 23.113817
v -17.042639 4.131493 23.113817
v -17.042639 2.044297 23.113817
v -17.042639 -0.211764 23.113817
v -17.042637 -0.737461 6.166102
v -17.042639 2.044297 6.336056
v -17.042639 4.131493 6.336056
v -6.925254 6.753149 6.166102
v -16.847963 6.753149 6.166102
v -16.847963 8.025015 6.166102
v -6.925254 8.025015 6.166102
v -16.847963 4.331492 6.166102
v -16.847963 6.353149 6.166102
v -6.925254 6.353149 6.166102
v -6.925254 4.331492 6.166102
v -6.925254 3.931492 6.166102
v -16.847963 3.931492 6.166102
v -6.925254 2.244297 6.166102
v -16.847963 2.244297 6.166102
v -6.925254 1.844297 6.166102
v -16.847963 1.844297 6.166102
v -6.925254 -0.011765 6.166102
v -16.847963 -0.011765 6.166102
v -11.020209 7.253148 6.166102
v -12.753018 7.253148 6.166102
v -12.753018 7.525015 6.166102
v -11.020209 7.525015 6.166102
v -11.020209 7.253148 5.807648
v -12.753018 7.253148 5.807648
v -12.753018 7.525015 5.807648
v -11.020209 7.525015 5.807648
v -12.861130 5.131493 6.166102
v -12.861130 5.553149 6.166102
v -10.912096 5.553149 6.166102
v -10.912096 5.131493 6.166102
v -12.861130 5.131493 5.807648
v -12.861130 5.553149 5.807648
v -10.912096 5.553149 5.807648
v -10.912096 5.131493 5.807648
v -10.938595 3.231491 6.166102
v -12.834627 3.231491 6.166102
v -10.938595 2.944297 6.166102
v -12.834627 2.944297 6.166102
v -10.938595 3.231491 5.807648
v -12.834627 3.231491 5.807648
v -10.938595 2.944297 5.807648
v -12.834627 2.944297 5.807648
v -10.849659 1.147073 6.166102
v -12.923563 1.147073 6.166102
v -10.849659 0.685458 6.166102
v -12.923563 0.685458 6.166102
v -10.849659 1.147073 5.807648
v -12.923563 1.147073 5.807648
v -10.849659 0.685458 5.807648
v -12.923563 0.685458 5.807648
vt 0.824948 0.122771
vt 0.424139 0.122912
vt 0.424109 0.097729
vt 0.824945 0.097506
vt 0.420894 0.122834
vt 0.420730 0.097909
vt 0.420579 0.158191
vt 0.423780 0.158195
vt 0.416529 0.122740
vt 0.417024 0.098013
vt 0.416254 0.158181
vt 0.424093 0.196769
vt 0.420748 0.196736
vt 0.413702 0.119086
vt 0.414223 0.100880
vt 0.416440 0.189017
vt 0.270800 0.122400
vt 0.273632 0.118779
vt 0.355924 0.111855
vt 0.355992 0.107974
vt 0.270382 0.098023
vt 0.273184 0.100852
vt 0.413523 0.185443
vt 0.413363 0.161734
vt 0.413585 0.126273
vt 0.273733 0.125943
vt 0.331438 0.111810
vt 0.331389 0.107962
vt 0.270622 0.188410
vt 0.273556 0.184872
vt 0.356930 0.175403
vt 0.356916 0.171380
vt 0.270961 0.157770
vt 0.273834 0.161328
vt 0.357372 0.137357
vt 0.329910 0.137290
vt 0.266428 0.122358
vt 0.266723 0.097962
vt 0.330196 0.175300
vt 0.330234 0.171296
vt 0.273873 0.154242
vt 0.413353 0.154632
vt 0.357337 0.143260
vt 0.329924 0.143185
vt 0.266642 0.157773
vt 0.262742 0.122360
vt 0.262983 0.097917
vt 0.266963 0.195986
vt 0.263017 0.157777
vt 0.262801 0.195933
vt 0.001918 0.974326
vt 0.001730 0.575666
vt 0.256337 0.574729
vt 0.257132 0.973937
vt 0.001740 0.572357
vt 0.256314 0.571391
vt 0.001752 0.568695
vt 0.256288 0.567694
vt 0.001695 0.414860
vt 0.254954 0.412537
vt 0.001692 0.411213
vt 0.254904 0.408837
vt 0.001688 0.407493
vt 0.254853 0.405064
vt 0.824986 0.404108
vt 0.424264 0.404179
vt 0.424249 0.378931
vt 0.824983 0.378847
vt 0.420950 0.404158
vt 0.420911 0.378942
vt 0.417284 0.404142
vt 0.417213 0.378954
vt 0.420772 0.342419
vt 0.424108 0.342407
vt 0.262150 0.404997
vt 0.261963 0.379860
vt 0.417076 0.342433
vt 0.420651 0.310908
vt 0.423992 0.310896
vt 0.258538 0.405017
vt 0.258293 0.379891
vt 0.261572 0.343417
vt 0.416949 0.310922
vt 0.420518 0.276805
vt 0.423862 0.276793
vt 0.833242 0.038617
vt 0.254550 0.379924
vt 0.257879 0.343452
vt 0.261186 0.311964
vt 0.416810 0.276818
vt 0.254110 0.343489
vt 0.257463 0.312010
vt 0.260800 0.277890
vt 0.253666 0.312058
vt 0.256962 0.277958
vt 0.253048 0.278058
vt 0.827878 0.000678
vt 0.827878 0.031709
vt 0.833242 0.031709
vt 0.833242 0.000678
vt 0.001630 0.382719
vt 0.872458 0.031088
vt 0.864279 0.031710
vt 0.864278 0.038618
vt 0.001427 0.346893
vt 0.836814 0.080668
vt 0.001002 0.308300
vt 0.827878 0.038617
vt 0.000456 0.275010
vt 0.833241 0.069650
vt 0.257149 0.999117
vt 0.001928 0.999501
vt 0.869642 0.038619
vt 0.869643 0.031711
vt 0.422990 0.229434
vt 0.253320 0.109443
vt 0.253334 0.112742
vt 0.001459 0.111239
vt 0.253348 0.116396
vt 0.001417 0.115021
vt 0.253092 0.270586
vt 0.000545 0.267685
vt 0.253071 0.274284
vt 0.000502 0.271311
vt 0.836793 0.106594
vt 0.906988 0.066562
vt 0.005267 0.000499
vt 0.255781 0.009029
vt 0.254937 0.044878
vt 0.004393 0.036245
vt 0.254184 0.075861
vt 0.002892 0.074785
vt 0.886600 0.070363
vt 0.881232 0.041995
vt 0.001425 0.108121
vt 0.419883 0.229326
vt 0.912358 0.031092
vt 0.416417 0.229214
vt 0.413656 0.218836
vt 0.413517 0.192584
vt 0.269992 0.228540
vt 0.272916 0.218202
vt 0.358059 0.208729
vt 0.358077 0.202204
vt 0.912351 0.066563
vt 0.273489 0.191998
vt 0.328660 0.208599
vt 0.328783 0.202083
vt 0.827877 0.069650
vt 0.266349 0.228504
vt 0.872458 0.037398
vt 0.262628 0.228442
vt 0.842180 0.050675
vt 0.836817 0.050675
vt 0.852860 0.070358
vt 0.847496 0.070354
vt 0.836817 0.076601
vt 0.847493 0.074652
vt 0.886601 0.074662
vt 0.881237 0.074662
vt 0.842181 0.076603
vt 0.868115 0.076632
vt 0.868113 0.080701
vt 0.842178 0.080672
vt 0.873479 0.076633
vt 0.912357 0.037403
vt 0.873478 0.080701
vt 0.842156 0.106599
vt 0.881237 0.103031
vt 0.852858 0.074656
vt 0.912355 0.001930
vt 0.881236 0.070364
vt 0.906994 0.031092
vt 0.906994 0.037402
vt 0.877822 0.037399
vt 0.877823 0.031088
vt 0.886600 0.103031
vt 0.906992 0.001930
vt 0.886596 0.041994
vn 0.000000 0.000000 -1.000000
vn 0.000000 0.000000 -1.000000
vn 0.000000 0.000000 -1.000000
vn 0.000000 0.000000 -1.000000
vn 0.000000 1.000000 -0.000000
vn 0.000000 1.000000 -0.000000
vn 0.000000 1.000000 -0.000000
vn 0.000000 1.000000 -0.000000
vn -0.000000 0.000000 1.000000
vn -0.000000 0.000000 1.000000
vn -0.000000 0.000000 1.000000
vn -0.000000 0.000000 1.000000
vn 0.000000 -1.000000 0.000000
vn 0.000000 -1.000000 0.000000
vn 0.000000 -1.000000 0.000000
vn 0.000000 -1.000000 0.000000
vn -1.000000 0.000000 -0.000000
vn -1.000000 0.000000 -0.000000
vn -1.000000 0.000000 -0.000000
vn -1.000000 0.000000 -0.000000
vn 1.000000 0.000000 0.000000
vn 1.000000 0.000000 0.000000
vn 1.000000 0.000000 0.000000
vn 1.000000 0.000000 0.000000
vn -0.179268 -0.026270 -0.983449
vn -0.179268 -0.026270 -0.983449
vn 0.000000 1.000000 -0.000000
vn 0.000000 1.000000 -0.000000
vn -0.000000 0.000000 1.000000
vn -0.000000 0.000000 1.000000
vn 0.000199 -0.999519 0.031006
vn 0.000199 -0.999519 0.031006
vn -0.000000 -0.999519 0.031006
vn 0.000000 -0.999519 0.031006
vn 1.000000 0.000000 0.000000
vn 1.000000 0.000000 0.000000
vn 1.000000 0.000000 0.000000
vn 1.000000 0.000000 0.000000
vn -0.000000 0.000000 1.000000
vn -0.000000 0.000000 1.000000
vn -0.000000 0.000000 1.000000
vn -0.000000 0.000000 1.000000
vn -1.000000 0.000000 -0.000000
vn -1.000000 0.000000 -0.000000
vn -1.000000 0.000000 0.000000
vn -1.000000 0.000000 0.000000
vn -0.335308 -0.000532 -0.942108
vn -0.342517 0.000000 -0.939512
vn 0.000000 0.000000 -1.000000
vn -0.006490 -0.000549 -0.999979
vn -0.012504 -0.001058 -0.999921
vn -0.027990 -0.001061 -0.999608
vn -1.000000 0.000000 0.000000
vn -1.000000 0.000001 0.000000
vn -0.000000 0.000000 1.000000
vn -0.000000 0.000000 1.000000
vn 1.000000 0.000000 0.000000
vn 1.000000 0.000000 0.000000
vn -1.000000 0.000000 0.000000
vn -1.000000 0.000000 0.000000
vn -0.000000 0.000000 1.000000
vn -0.000000 0.000000 1.000000
vn 1.000000 0.000000 0.000000
vn 1.000000 0.000000 0.000000
vn -0.104575 -0.004316 -0.994508
vn -0.057976 -0.008906 -0.998278
vn 0.000000 1.000000 -0.000000
vn 0.000000 1.000000 -0.000000
vn -0.000000 0.000000 1.000000
vn -0.000000 0.000000 1.000000
vn -0.000000 0.000000 1.000000
vn -0.000000 0.000000 1.000000
vn -0.000000 0.000000 1.000000
vn -0.000000 0.000000 1.000000
vn -0.000004 -0.999519 0.031004
vn -0.000004 -0.999519 0.031004
vn 0.003316 0.640570 -0.767893
vn -0.276227 0.032352 -0.960548
vn -0.276227 0.032352 -0.960548
vn -0.022600 0.002692 -0.999741
vn -0.146541 -0.000130 -0.989205
vn -0.209139 -0.461371 -0.862205
vn 0.168614 -0.024792 -0.985370
vn 0.000000 0.000000 -1.000000
vn 0.000000 0.000000 -1.000000
vn 0.168614 -0.024792 -0.985370
vn 0.000000 1.000000 -0.000000
vn 0.000000 1.000000 -0.000000
vn 0.000000 1.000000 -0.000000
vn 0.000000 1.000000 -0.000000
vn -0.000000 0.000000 1.000000
vn -0.000000 0.000000 1.000000
vn -0.000000 0.000000 1.000000
vn -0.000000 0.000000 1.000000
vn -0.000000 0.000000 1.000000
vn -0.000000 0.000000 1.000000
vn -0.000000 0.000000 1.000000
vn -0.000000 0.000000 1.000000
vn -0.000000 0.000000 1.000000
vn -0.000000 0.000000 1.000000
vn -0.000000 0.000000 1.000000
vn -0.000000 0.000000 1.000000
vn -0.000000 -0.999519 0.031004
vn -0.000000 -0.999519 0.031004
vn -0.000000 -0.999519 0.031004
vn -0.000000 -0.999519 0.031004
vn 0.265060 0.029463 -0.963782
vn 0.085867 0.051256 -0.994987
vn 0.129936 0.046088 -0.990451
vn 0.265060 0.029463 -0.963782
vn 0.141291 -0.013561 -0.989875
vn 0.328467 -0.013272 -0.944422
vn 0.267048 -0.025465 -0.963347
vn 0.265093 -0.025443 -0.963887
vn 0.000000 0.000000 -1.000000
vn 0.323797 0.000000 -0.946126
vn 0.000000 0.000000 -1.000000
vn 0.000000 0.000000 -1.000000
vn 0.000000 0.000000 -1.000000
vn 0.000000 0.000000 -1.000000
vn 0.000000 1.000000 -0.000000
vn 0.000000 1.000000 -0.000000
vn -0.000000 0.000000 1.000000
vn -0.000000 0.000000 1.000000
vn -0.000000 0.000000 1.000000
vn -0.000000 0.000000 1.000000
vn -0.000000 0.000000 1.000000
vn -0.000000 0.000000 1.000000
vn -0.000000 -0.999519 0.031004
vn -0.000000 -0.999519 0.031004
vn 0.000000 0.000000 -1.000000
vn 0.000000 0.000000 -1.000000
vn 0.000000 0.000000 -1.000000
vn 0.000000 0.000000 -1.000000
vn 0.000000 0.000000 -1.000000
vn 0.000000 0.000000 -1.000000
vn 0.000000 0.000000 -1.000000
vn 0.000000 0.000000 -1.000000
vn 0.000000 0.000000 -1.000000
vn 0.000000 0.000000 -1.000000
vn 0.000000 0.000000 -1.000000
vn 0.000000 0.000000 -1.000000
vn 0.104505 -0.004327 -0.994515
vn 0.057942 -0.008930 -0.998280
vn -0.004745 0.641478 -0.767127
vn -0.000253 0.004802 -0.999988
vn 0.120352 -0.003264 -0.992726
vn 0.135431 -0.473320 -0.870418
vn -0.041202 -0.305366 -0.951343
vn 0.041202 -0.305366 -0.951343
vn -0.043915 -0.005809 -0.999018
vn 0.043915 -0.005809 -0.999018
vn -0.209987 0.506333 -0.836381
vn -0.209987 -0.506333 -0.836380
vn 0.209985 0.506329 -0.836383
vn 0.209985 -0.506330 -0.836383
vn 0.087032 0.247048 -0.965087
vn -0.087032 0.247049 -0.965087
vn 0.087032 -0.247048 -0.965087
vn -0.087032 -0.247049 -0.965087
vn 0.122138 0.516068 -0.847795
vn -0.122139 0.516071 -0.847793
vn 0.052611 0.003967 -0.998607
vn -0.052611 0.003967 -0.998607
vn 0.000000 0.000000 -1.000000
vn 0.000000 0.000000 -1.000000
vn 0.000000 0.000000 -1.000000
vn 0.000000 0.000000 -1.000000
vn 0.000000 -1.000000 0.000000
vn 0.000000 -1.000000 0.000000
vn 0.000000 -1.000000 0.000000
vn 0.000000 -1.000000 0.000000
vn -1.000000 0.000000 -0.000000
vn -1.000000 0.000000 -0.000000
vn -1.000000 0.000000 -0.000000
vn -1.000000 0.000000 -0.000000
vn 0.000000 1.000000 -0.000000
vn 0.000000 1.000000 -0.000000
vn 0.000000 1.000000 -0.000000
vn 0.000000 1.000000 -0.000000
vn 1.000000 0.000000 0.000000
vn 1.000000 0.000000 0.000000
vn 1.000000 0.000000 0.000000
vn 1.000000 0.000000 0.000000
vn 0.000000 0.000000 -1.000000
vn 0.000000 0.000000 -1.000000
vn 0.000000 0.000000 -1.000000
vn 0.000000 0.000000 -1.000000
vn 0.000000 0.000000 -1.000000
vn 0.000000 0.000000 -1.000000
vn 0.000000 0.000000 -1.000000
vn 0.000000 0.000000 -1.000000
vn -1.000000 0.000000 -0.000000
vn -1.000000 0.000000 -0.000000
vn -1.000000 0.000000 -0.000000
vn -1.000000 0.000000 -0.000000
vn 0.000000 1.000000 -0.000000
vn 0.000000 1.000000 -0.000000
vn 0.000000 1.000000 -0.000000
vn 0.000000 1.000000 -0.000000
vn 1.000000 0.000000 0.000000
vn 1.000000 0.000000 0.000000
vn 1.000000 0.000000 0.000000
vn 1.000000 0.000000 0.000000
vn 0.000000 -1.000000 0.000000
vn 0.000000 -1.000000 0.000000
vn 0.000000 -1.000000 0.000000
vn 0.000000 -1.000000 0.000000
vn 0.000000 0.000000 -1.000000
vn 0.000000 0.000000 -1.000000
vn 0.000000 0.000000 -1.000000
vn 0.000000 0.000000 -1.000000
vn 0.000000 1.000000 -0.000000
vn 0.000000 1.000000 -0.000000
vn 0.000000 1.000000 -0.000000
vn 0.000000 1.000000 -0.000000
vn 1.000000 0.000000 0.000000
vn 1.000000 0.000000 0.000000
vn 1.000000 0.000000 0.000000
vn 1.000000 0.000000 0.000000
vn 0.000000 -1.000000 0.000000
vn 0.000000 -1.000000 0.000000
vn 0.000000 -1.000000 0.000000
vn 0.000000 -1.000000 0.000000
vn -1.000000 0.000000 -0.000000
vn -1.000000 0.000000 -0.000000
vn -1.000000 0.000000 -0.000000
vn -1.000000 0.000000 -0.000000
vn 0.000000 0.000000 -1.000000
vn 0.000000 0.000000 -1.000000
vn 0.000000 0.000000 -1.000000
vn 0.000000 0.000000 -1.000000
vn 0.000000 0.000000 -1.000000
vn 0.000000 0.000000 -1.000000
vn 0.000000 0.000000 -1.000000
vn 0.000000 0.000000 -1.000000
vn 0.000000 0.000000 -1.000000
vn 0.000000 0.000000 -1.000000
vn 0.000000 0.000000 -1.000000
vn 0.000000 0.000000 -1.000000
vn 0.000000 0.000000 -1.000000
vn 0.000000 0.000000 -1.000000
vn 0.000000 0.000000 -1.000000
vn 0.000000 0.000000 -1.000000
vn 0.000000 1.000000 -0.000000
vn 0.000000 1.000000 -0.000000
vn 0.000000 1.000000 -0.000000
vn 0.000000 1.000000 -0.000000
vn 1.000000 0.000000 0.000000
vn 1.000000 0.000000 0.000000
vn 1.000000 0.000000 0.000000
vn 1.000000 0.000000 0.000000
vn 0.000000 -1.000000 0.000000
vn 0.000000 -1.000000 0.000000
vn 0.000000 -1.000000 0.000000
vn 0.000000 -1.000000 0.000000
vn -1.000000 0.000000 -0.000000
vn -1.000000 0.000000 -0.000000
vn -1.000000 0.000000 -0.000000
vn -1.000000 0.000000 -0.000000
vn -0.019213 0.000568 -0.999815
vn -0.019213 0.000568 -0.999815
vn -0.019213 0.000568 -0.999815
vn -0.019213 0.000568 -0.999815
s 1
g pCube21 group38
usemtl blinn5SG
f 1/1/1 9/2/2 10/3/3 3/4/4
s 2
f 3/51/5 10/52/6 11/53/7 5/54/8
s 3
f 5/65/9 11/66/10 12/67/11 7/68/12
s off
f 7/68/13 12/67/14 9/2/15 1/1/16
f 2/101/17 8/87/18 6/64/19 4/63/20
f 7/111/21 1/112/22 3/51/23 5/54/24
s 1
f 9/2/2 25/5/25 26/6/26 10/3/3
s 2
f 11/53/7 10/52/6 26/55/27 27/56/28
s 3
f 12/67/11 11/66/10 27/69/29 28/70/30
s 4
f 14/135/31 13/116/32 31/117/33 32/118/34
s 5
f 9/127/35 12/128/36 20/129/37 17/130/38
s 6
f 12/67/39 28/70/40 29/73/41 20/74/42
s 7
f 8/87/43 2/101/44 18/105/45 19/91/46
s 1
f 34/7/47 25/5/48 9/2/49 17/8/50
f 34/7/47 17/8/50 21/12/51 33/13/52
s 7
f 19/91/46 18/105/45 22/107/53 23/94/54
s 6
f 20/74/42 29/73/41 30/78/55 24/79/56
s 5
f 17/130/38 20/129/37 24/131/57 21/132/58
s 7
f 23/94/54 22/107/53 16/109/59 15/96/60
s 6
f 24/79/56 30/78/55 31/84/61 13/85/62
s 5
f 21/132/58 24/131/57 13/116/63 14/135/64
s 1
f 25/5/25 45/9/65 46/10/66 26/6/26
s 2
f 27/56/28 26/55/27 46/57/67 47/58/68
s 3
f 28/70/30 27/69/29 47/71/69 48/72/70
s 6
f 29/73/41 28/70/40 48/72/71 49/77/72
f 30/78/55 29/73/41 49/77/72 50/83/73
f 31/84/61 30/78/55 50/83/73 51/90/74
s 4
f 32/118/34 31/117/33 51/119/75 52/120/76
s 9
f 53/16/77 33/13/78 32/136/79 52/138/80
s 1
f 54/11/81 34/7/47 33/13/52 53/16/82
f 54/11/81 45/9/65 25/5/48 34/7/47
f 35/37/83 2/46/84 4/47/85 36/38/86
s 2
f 37/62/87 36/61/88 4/63/89 6/64/90
s 3
f 38/81/91 37/80/92 6/64/93 8/87/94
s 6
f 39/88/95 38/81/96 8/87/97 19/91/98
f 40/92/99 39/88/95 19/91/98 23/94/100
f 41/95/101 40/92/99 23/94/100 15/96/102
s 4
f 42/124/103 41/123/104 15/96/105 16/109/106
s 9
f 22/50/107 43/48/108 42/150/109 16/152/110
s 1
f 18/49/111 44/45/112 43/48/113 22/50/114
f 2/46/115 35/37/116 44/45/112 18/49/111
s off
f 85/161/117 86/162/118 87/163/119 88/164/120
s 2
f 47/58/68 46/57/67 56/59/121 57/60/122
s 3
f 48/72/70 47/71/69 57/75/123 58/76/124
s 6
f 49/77/72 48/72/71 58/76/125 59/82/126
f 50/83/73 49/77/72 59/82/126 60/89/127
f 51/90/74 50/83/73 60/89/127 61/93/128
s 4
f 52/120/76 51/119/75 61/121/129 62/122/130
s off
f 110/104/131 109/86/132 111/99/133 112/103/134
f 102/160/135 101/170/136 103/155/137 104/172/138
f 93/173/139 94/174/140 95/175/141 96/176/142
s 1
f 55/17/143 35/37/83 36/38/86 56/21/144
s 2
f 57/60/122 56/59/121 36/61/88 37/62/87
s 3
f 58/76/124 57/75/123 37/80/92 38/81/91
s 6
f 59/82/126 58/76/125 38/81/96 39/88/95
f 60/89/127 59/82/126 39/88/95 40/92/99
f 61/93/128 60/89/127 40/92/99 41/95/101
s 4
f 62/122/130 61/121/129 41/123/104 42/124/103
s 9
f 43/48/108 63/29/145 62/141/146 42/150/109
s 1
f 44/45/112 64/33/147 63/29/148 43/48/113
f 44/45/112 35/37/116 55/17/143 64/33/147
f 45/9/65 55/17/143 66/18/149 65/14/150
f 55/17/143 56/21/144 67/22/151 66/18/149
f 56/21/144 46/10/66 68/15/152 67/22/151
f 46/10/66 45/9/65 65/14/150 68/15/152
f 64/33/147 55/17/143 70/26/153 69/41/154
f 55/17/143 45/9/65 71/25/155 70/26/153
f 45/9/65 54/11/81 72/42/156 71/25/155
f 54/11/81 64/33/147 69/41/154 72/42/156
f 64/33/147 54/11/81 73/24/157 74/34/158
f 54/11/81 53/16/82 75/23/159 73/24/157
f 53/16/82 63/29/148 76/30/160 75/23/159
f 63/29/148 64/33/147 74/34/158 76/30/160
s 9
f 63/29/145 53/16/77 77/140/161 78/146/162
f 53/16/77 52/138/80 79/139/163 77/140/161
f 52/138/80 62/141/146 80/142/164 79/139/163
f 62/141/146 63/29/145 78/146/162 80/142/164
s 1
f 65/14/150 66/18/149 82/27/165 81/19/166
f 66/18/149 67/22/151 83/28/167 82/27/165
f 67/22/151 68/15/152 84/20/168 83/28/167
f 68/15/152 65/14/150 81/19/166 84/20/168
s off
f 81/157/169 82/154/170 86/153/171 85/161/172
f 82/165/173 83/167/174 87/163/175 86/162/176
f 83/125/177 84/106/178 88/164/179 87/168/180
f 84/106/181 81/157/182 85/161/183 88/164/184
s 18
f 69/41/185 70/26/186 90/36/187 89/44/188
f 70/26/186 71/25/189 91/35/190 90/36/187
f 71/25/189 72/42/191 92/43/192 91/35/190
f 72/42/191 69/41/185 89/44/188 92/43/192
s off
f 89/137/193 90/166/194 94/174/195 93/173/196
f 90/166/197 91/145/198 95/126/199 94/174/200
f 91/151/201 92/102/202 96/176/203 95/175/204
f 92/171/205 89/137/206 93/173/207 96/178/208
s 1
f 74/34/158 73/24/157 97/32/209 98/40/210
f 73/24/157 75/23/159 99/31/211 97/32/209
f 75/23/159 76/30/160 100/39/212 99/31/211
f 76/30/160 74/34/158 98/40/210 100/39/212
s off
f 98/159/213 97/177/214 101/169/215 102/160/216
f 97/158/217 99/156/218 103/155/219 101/170/220
f 99/179/221 100/133/222 104/172/223 103/134/224
f 100/133/225 98/159/226 102/160/227 104/172/228
f 78/146/229 77/140/230 105/144/231 106/148/232
f 77/140/233 79/139/234 107/143/235 105/144/236
f 79/139/237 80/142/238 108/147/239 107/143/240
f 80/142/241 78/146/242 106/148/243 108/147/244
f 106/149/245 105/108/246 109/86/247 110/110/248
f 105/108/249 107/98/250 111/99/251 109/86/252
f 107/98/253 108/97/254 112/100/255 111/99/256
f 108/114/257 106/113/258 110/104/259 112/103/260
f 32/136/261 33/13/262 21/12/263 14/115/264
