# This file uses centimeters as units for non-parametric coordinates.

mtllib Base_L.mtl
g default
v -160.139209 0.000000 171.142777
v 133.237375 0.000000 171.142777
v 133.237375 162.059086 171.142777
v -160.139209 162.059086 -109.421932
v 133.237375 162.059086 -109.421932
v -160.139209 0.000000 -109.421932
v 133.237375 0.000000 -109.421932
vt 0.972196 0.326662
vt 0.972196 0.999500
vt 0.654480 0.999500
vt 0.654480 0.326662
vt 0.000486 0.000499
vt 0.000486 0.999501
vt 0.000486 0.326662
vt 0.654480 0.000499
vn 0.000000 0.000000 1.000000
vn 0.000000 0.000000 1.000000
vn 0.000000 0.000000 1.000000
vn 0.000000 0.000000 1.000000
vn 0.000000 1.000000 0.000000
vn 0.000000 1.000000 0.000000
vn 0.000000 1.000000 0.000000
vn 0.000000 1.000000 0.000000
vn -1.000000 0.000000 0.000000
vn -1.000000 0.000000 0.000000
vn -1.000000 0.000000 0.000000
vn -1.000000 0.000000 0.000000
s off
g Base
usemtl initialShadingGroup
f 5/1/1 4/2/2 6/3/3 7/4/4
f 6/3/5 1/6/6 2/7/7 7/4/8
f 2/7/9 3/5/10 5/8/11 7/4/12
