# This file uses centimeters as units for non-parametric coordinates.

mtllib Teclado_L.mtl
g default
v -1.998403 8.225016 13.158678
v 9.537014 8.225016 13.158678
v -1.439332 8.983504 12.891343
v 8.977942 8.983504 12.891343
v -1.439332 8.983504 7.910061
v 8.977942 8.983504 7.910061
v -1.998403 8.225016 7.642727
v 9.537014 8.225016 7.642727
v -1.856228 8.634156 13.090693
v -1.856228 8.634156 7.710712
v 9.394839 8.634156 7.710712
v 9.394839 8.634156 13.090693
vt 0.000315 0.999501
vt 0.000298 0.000511
vt 0.028042 0.022849
vt 0.028053 0.977151
vt 0.060854 0.937566
vt 0.060879 0.062408
vt 0.534989 0.062435
vt 0.534964 0.937592
vt 0.567800 0.977151
vt 0.567789 0.022849
vt 0.595528 0.000499
vt 0.595545 0.999489
vn 0.000000 0.163917 0.986474
vn 0.000000 0.163917 0.986474
vn 0.000000 0.322661 0.946515
vn 0.000000 0.322661 0.946515
vn 0.000000 1.000000 0.000000
vn 0.000000 1.000000 0.000000
vn 0.000000 1.000000 0.000000
vn 0.000000 1.000000 0.000000
vn 0.000000 0.322660 -0.946515
vn 0.000000 0.322660 -0.946515
vn 0.000000 0.163918 -0.986474
vn 0.000000 0.163918 -0.986474
vn 0.944593 0.328244 0.000000
vn 0.944593 0.328244 0.000000
vn 0.814265 0.580494 0.000000
vn 0.814265 0.580494 0.000000
vn -0.944593 0.328245 0.000000
vn -0.944593 0.328245 0.000000
vn -0.814265 0.580493 0.000000
vn -0.814265 0.580493 0.000000
vn -0.642281 0.766469 0.000000
vn -0.642281 0.766469 0.000000
vn 0.000000 0.495617 -0.868541
vn 0.000000 0.495617 -0.868541
vn 0.642280 0.766470 0.000000
vn 0.642280 0.766470 0.000000
vn 0.000000 0.495619 0.868540
vn 0.000000 0.495619 0.868540
s 1
g pCube34 group21 group25
usemtl initialShadingGroup
f 1/1/1 2/2/2 12/3/3 9/4/4
s off
f 3/5/5 4/6/6 6/7/7 5/8/8
s 2
f 10/9/9 11/10/10 8/11/11 7/12/12
s 3
f 2/2/13 8/11/14 11/10/15 12/3/16
s 4
f 7/12/17 1/1/18 9/4/19 10/9/20
f 10/9/20 9/4/19 3/5/21 5/8/22
s 2
f 5/8/23 6/7/24 11/10/10 10/9/9
s 3
f 12/3/16 11/10/15 6/7/25 4/6/26
s 1
f 9/4/4 12/3/3 4/6/27 3/5/28
